HIERARCHY
ROOT ui
{
	 OFFSET 0 0 0
	 CHANNELS 3 XPosition YPosition Z Position
	 EndSite
	 {
	 OFFSET 0 -1 0
	 }
}
ROOT li
{
	 OFFSET 0 0 0
	 CHANNELS 3 XPosition YPosition Z Position
	 EndSite
	 {
	 OFFSET 0 -1 0
	 }
}
ROOT ul
{
	 OFFSET 0 0 0
	 CHANNELS 3 XPosition YPosition Z Position
	 EndSite
	 {
	 OFFSET 0 -1 0
	 }
}
ROOT ll
{
	 OFFSET 0 0 0
	 CHANNELS 3 XPosition YPosition Z Position
	 EndSite
	 {
	 OFFSET 0 -1 0
	 }
}
ROOT tt
{
	 OFFSET 0 0 0
	 CHANNELS 3 XPosition YPosition Z Position
	 EndSite
	 {
	 OFFSET 0 -1 0
	 }
}
ROOT tb
{
	 OFFSET 0 0 0
	 CHANNELS 3 XPosition YPosition Z Position
	 EndSite
	 {
	 OFFSET 0 -1 0
	 }
}
ROOT td
{
	 OFFSET 0 0 0
	 CHANNELS 3 XPosition YPosition Z Position
	 EndSite
	 {
	 OFFSET 0 -1 0
	 }
}
ROOT v
{
	 OFFSET 0 0 0
	 CHANNELS 3 XPosition YPosition Z Position
	 EndSite
	 {
	 OFFSET 0 -1 0
	 }
}
ROOT bn
{
	 OFFSET 0 0 0
	 CHANNELS 3 XPosition YPosition Z Position
	 EndSite
	 {
	 OFFSET 0 -1 0
	 }
}
MOTION
Frames: 32
Frame Time: 0.002
0.020152656555175782	5.369999911636114E-6	0		0.46020840454101564	-2.490422607421875	0		-0.9879683227539062	0.2831962890625	0		-0.48145925903320314	-2.887232421875	0		1.8136292724609375	-0.1922099151611328	0		2.93329345703125	0.20309909057617187	0		4.25998876953125	0.3144714965820313	0		5.8563720703125	0.29319842529296875	0		-0.15742750549316406	5.93908642578125	0		
-0.056447364807128905	0.0022575500011444093	0		0.4624657287597656	-2.4883115234375	0		-0.9816443481445313	0.2783382873535156	0		-0.3603221435546875	-2.892743408203125	0		1.8158546142578125	-0.20217843627929688	0		2.974482177734375	0.1885137939453125	0		4.2563017578125	0.30844097900390627	0		5.86882373046875	0.3028455505371094	0		-0.2758376159667969	5.92994287109375	0		
0.013837557792663574	-0.006586427211761474	0		0.4637576599121094	-2.48620849609375	0		-0.9771671142578126	0.28248062133789065	0		-0.5109104614257812	-2.87944140625	0		1.7094007568359375	-0.19062335205078124	0		2.95316943359375	0.20779804992675782	0		4.24271142578125	0.30754107666015623	0		5.875720703125	0.3351621704101562	0		-0.32233151245117186	5.91376953125	0		
0.02137318992614746	4.307880103588104E-4	0		0.4681330871582031	-2.48117236328125	0		-0.9767149047851562	0.28265087890625	0		-0.4535755615234375	-2.87610693359375	0		1.7246982421875	-0.19980857849121095	0		2.964260986328125	0.1826050567626953	0		4.2612626953125	0.3141766357421875	0		5.87739697265625	0.3243960266113281	0		-0.273356689453125	5.929220703125	0		
0.021847711563110352	5.210899710655213E-4	0		0.45961566162109374	-2.4719765625	0		-0.9762265625	0.2827899475097656	0		-0.5310196533203125	-2.859882080078125	0		1.668097412109375	-0.2039877471923828	0		2.963915771484375	0.19456460571289064	0		4.2625673828125	0.30104681396484373	0		5.88140087890625	0.34123101806640627	0		-0.2877478942871094	5.91854052734375	0		
0.022361183166503908	5.835000276565551E-4	0		0.45797885131835936	-2.474904296875	0		-0.9856854858398437	0.28403878784179687	0		-0.3689190979003906	-2.881112060546875	0		1.67942919921875	-0.21615315246582031	0		2.98616357421875	0.17518612670898437	0		4.26309375	0.3009247131347656	0		5.8902939453125	0.335410400390625	0		-0.13950543212890626	5.95050927734375	0		
0.01275319480895996	-0.010238336563110352	0		0.45843524169921873	-2.474886962890625	0		-0.9942399291992188	0.27623992919921875	0		-0.5013207092285156	-2.869156494140625	0		1.6907822265625	-0.22933798217773438	0		2.9467373046875	0.17668283081054686	0		4.25956787109375	0.29485794067382814	0		5.89434228515625	0.3505325622558594	0		-0.32026104736328126	5.91514990234375	0		
0.019428543090820313	-0.003320709943771362	0		0.4609779663085937	-2.471925048828125	0		-0.9786142578125	0.2790593872070313	0		-0.49777578735351563	-2.8651796875	0		1.6982637939453125	-0.23548478698730468	0		2.966927978515625	0.14931278991699218	0		4.26993603515625	0.2795902404785156	0		5.8954345703125	0.3450135192871094	0		-0.3033908386230469	5.92293359375	0		
-0.05290132904052734	0.0027060370445251463	0		0.43964276123046875	-2.4626435546875	0		-0.9699171752929687	0.28594265747070313	0		-0.5271481323242188	-2.85776025390625	0		1.7078192138671875	-0.23767753601074218	0		3.00177783203125	0.16672828674316406	0		4.273619140625	0.2854230041503906	0		5.90733837890625	0.35644366455078125	0		-0.25343650817871094	5.9382099609375	0		
0.024670019149780273	5.459190011024475E-4	0		0.4630953369140625	-2.470031982421875	0		-0.9473645629882812	0.2825898132324219	0		-0.49467376708984373	-2.863263916015625	0		1.7202205810546876	-0.2509263000488281	0		2.96404638671875	0.14418154907226563	0		4.267044921875	0.27340863037109375	0		5.9013115234375	0.35123300170898436	0		-0.13656173706054686	5.95048876953125	0		
-0.05171977996826172	0.0025797739028930664	0		0.46366619873046877	-2.47011181640625	0		-0.9827567138671875	0.2840389099121094	0		-0.5070032653808594	-2.856150390625	0		1.731617919921875	-0.2641719665527344	0		2.980633544921875	0.14385391235351563	0		4.2684326171875	0.2592898864746094	0		5.90539990234375	0.368203857421875	0		-0.2682512817382813	5.92931982421875	0		
0.015676593780517577	-0.01048633575439453	0		0.46321826171875	-2.472197265625	0		-0.9962225952148438	0.2811384582519531	0		-0.498610107421875	-2.8693662109375	0		1.7069234619140625	-0.28290728759765627	0		2.966864990234375	0.11996267700195312	0		4.2690087890625	0.259196533203125	0		5.90947998046875	0.38522088623046874	0		-0.26768539428710936	5.92921826171875	0		
0.02639664840698242	2.449280023574829E-4	0		0.4388663024902344	-2.467956298828125	0		-0.9816212768554687	0.28380255126953124	0		-0.4949609069824219	-2.86553857421875	0		1.7072725830078126	-0.2980118408203125	0		2.98553955078125	0.1276092071533203	0		4.27346728515625	0.2520597381591797	0		5.9135390625	0.4005559387207031	0		-0.30125225830078123	5.92458251953125	0		
0.021999961853027345	0.004173058986663819	0		0.469483154296875	-2.46652392578125	0		-0.981081298828125	0.28364035034179685	0		-0.5232297973632812	-2.856275146484375	0		1.6998673095703125	-0.2950091247558594	0		2.96979638671875	0.10775325012207031	0		4.2740078125	0.25199539184570313	0		5.91879736328125	0.379566162109375	0		-0.1344315185546875	5.95004052734375	0		
-0.049514320373535155	0.0020468978881835937	0		0.4400450439453125	-2.46824169921875	0		-0.9865093383789062	0.28753836059570315	0		-0.49070693969726564	-2.861909912109375	0		1.7160933837890624	-0.3163528137207031	0		2.997225830078125	0.10128398132324219	0		4.2673505859375	0.24005015563964843	0		5.91618359375	0.35717401123046877	0		-0.2663861694335937	5.9287744140625	0		
0.023896480560302736	-0.004177271842956543	0		0.4665884094238281	-2.470775634765625	0		-0.98414404296875	0.2792999877929688	0		-0.5230723266601562	-2.858630859375	0		1.713322265625	-0.3354256896972656	0		2.9835419921875	0.0894120101928711	0		4.27173193359375	0.23296324157714843	0		5.9238701171875	0.391569580078125	0		-0.14892520141601562	5.93991015625	0		
-0.05262818145751953	-0.0022655320167541504	0		0.4292744140625	-2.461404296875	0		-0.9936870727539062	0.2802131652832031	0		-0.521474609375	-2.856856201171875	0		1.71747412109375	-0.35760055541992186	0		2.991833251953125	0.07823049163818359	0		4.26808984375	0.22700511169433593	0		5.92000537109375	0.40737716674804686	0		-0.3009411926269531	5.924888671875	0		
0.02172132682800293	-0.007521668910980225	0		0.4416993713378906	-2.4687548828125	0		-0.9792445678710937	0.282768310546875	0		-0.539957275390625	-2.858808837890625	0		1.6616820068359375	-0.3729228515625	0		2.96698974609375	0.060524730682373046	0		4.27827880859375	0.2118584747314453	0		5.936673828125	0.40174331665039065	0		-0.29883981323242187	5.92164697265625	0		
-0.04473909759521484	0.004222938060760498	0		0.44729507446289063	-2.462011474609375	0		-0.9688972778320313	0.28137200927734374	0		-0.4983745422363281	-2.85462451171875	0		1.6899742431640625	-0.3804451904296875	0		3.02627197265625	0.053625904083251956	0		4.27864453125	0.21186074829101562	0		5.93940576171875	0.45717105102539063	0		-0.2835979919433594	5.9322119140625	0		
0.014739837646484375	0.013175642967224122	0		0.45974862670898436	-2.46336767578125	0		-0.9785529174804688	0.28225469970703126	0		-0.5447394409179688	-2.8441953125	0		1.6758717041015625	-0.41336712646484375	0		2.984390625	0.03816640853881836	0		4.2819912109375	0.21282669067382812	0		5.93599267578125	0.44188919067382815	0		-0.2666005554199219	5.92874755859375	0		
-0.04711861419677734	8.427699804306031E-4	0		0.4680543518066406	-2.473664306640625	0		-0.9823042602539063	0.2780517578125	0		-0.5103319396972656	-2.848911376953125	0		1.6660302734375	-0.42634652709960935	0		2.97249755859375	0.023283483505249024	0		4.29410107421875	0.1986728973388672	0		5.93690283203125	0.4368515319824219	0		-0.2675614013671875	5.9305390625	0		
0.02611100387573242	-0.005390719890594482	0		0.466448974609375	-2.47681787109375	0		-0.9779559326171875	0.28173736572265623	0		-0.5438162231445313	-2.84466748046875	0		1.6390955810546874	-0.44508468627929687	0		2.969733642578125	0.01827527618408203	0		4.27931494140625	0.1929024658203125	0		5.93712060546875	0.4370352478027344	0		-0.3016456298828125	5.92479638671875	0		
0.018449203491210937	-0.0034802889823913573	0		0.4668869934082031	-2.476996337890625	0		-0.9717319946289062	0.276400390625	0		-0.4965035705566406	-2.855554931640625	0		1.65407666015625	-0.47040948486328127	0		2.97592919921875	0.010143987655639649	0		4.284515625	0.18585321044921874	0		5.93873681640625	0.43198446655273437	0		-0.3016447448730469	5.924578125	0		
0.03080027961730957	-0.0018438949584960937	0		0.469380126953125	-2.474197509765625	0		-0.9673666381835937	0.28009719848632814	0		-0.5140308227539062	-2.855526611328125	0		1.6442586669921875	-0.4823809814453125	0		2.96293359375	-0.01271668529510498	0		4.284830078125	0.18587635803222657	0		5.94243359375	0.4147559814453125	0		-0.26754476928710935	5.92989111328125	0		
0.031147483825683595	-0.0020312349796295166	0		0.46781106567382813	-2.477334716796875	0		-0.9770188598632813	0.2809981079101562	0		-0.48161166381835935	-2.861185546875	0		1.637297607421875	-0.5063870849609375	0		2.98305712890625	-0.029031782150268554	0		4.277001953125	0.17401669311523438	0		5.94634619140625	0.4321312561035156	0		-0.14935653686523437	5.939048828125	0		
0.016714025497436523	0.011998881340026855	0		0.4642501220703125	-2.481433349609375	0		-0.9766615600585937	0.2807720031738281	0		-0.5130263671875	-2.855944580078125	0		1.579491943359375	-0.5206795043945313	0		2.9762783203125	-0.039963687896728516	0		4.2732822265625	0.16810691833496094	0		5.954455078125	0.4320737609863281	0		-0.2825574951171875	5.9197060546875	0		
0.02785415840148926	-0.006314011096954346	0		0.47260623168945315	-2.49268408203125	0		-0.9803397216796875	0.2766171875	0		-0.5016250305175781	-2.86528369140625	0		1.5695216064453126	-0.5486271362304688	0		2.962395751953125	-0.059790176391601564	0		4.27856689453125	0.1610791473388672	0		5.943419921875	0.44996649169921876	0		-0.3165299072265625	5.91399853515625	0		
-0.04467166137695312	-4.573130011558533E-4	0		0.4290801086425781	-2.495205322265625	0		-0.9699686889648438	0.2752879333496094	0		-0.5309981689453125	-2.858042236328125	0		1.5595469970703124	-0.5775635375976562	0		2.952426513671875	-0.08666379547119141	0		4.2687666015625	0.1472637939453125	0		5.9473671875	0.4673585205078125	0		-0.3012629699707031	5.92362939453125	0		
0.03574241638183594	3.149630129337311E-4	0		0.4885873718261719	-2.495125244140625	0		-0.9614909057617187	0.2820075378417969	0		-0.5233748779296875	-2.85029052734375	0		1.5628143310546876	-0.5886673583984375	0		2.963919189453125	-0.07982037353515625	0		4.2642646484375	0.15538174438476562	0		5.95131103515625	0.4847502136230469	0		-0.26606637573242187	5.92700732421875	0		
-0.04389913558959961	-6.990460157394409E-4	0		0.4570103759765625	-2.49877734375	0		-0.9651641235351562	0.27891653442382813	0		-0.490971435546875	-2.856856201171875	0		1.5559017333984375	-0.6116180419921875	0		2.94779638671875	-0.11659262847900391	0		4.2794716796875	0.14323374938964845	0		5.96288330078125	0.4655558471679688	0		-0.31610357666015626	5.91357275390625	0		
0.01862453079223633	0.01136711597442627	0		0.480352783203125	-2.50616015625	0		-0.9688758544921875	0.2748515014648438	0		-0.4925323486328125	-2.85793212890625	0		1.4750921630859375	-0.6245440673828125	0		2.932045166015625	-0.12435626983642578	0		4.26165673828125	0.1315445098876953	0		5.95529833984375	0.46776141357421874	0		-0.28188046264648436	5.91901171875	0		
-0.052214397430419925	2.7270600199699404E-4	0		0.47870999145507814	-2.50917919921875	0		-0.9685665283203125	0.27475906372070313	0		-0.4822738342285156	-2.86914453125	0		1.4622137451171875	-0.6403804321289063	0		2.946971435546875	-0.15352584838867187	0		4.2729697265625	0.13146896362304689	0		5.948392578125	0.46822039794921877	0		-0.31582925415039065	5.913404296875	0		
